<?xml version="1.0" encoding="UTF-8"?>
<svg width="24px" height="24px" viewBox="0 0 24 24" version="1.1" xmlns="http://www.w3.org/2000/svg" xmlns:xlink="http://www.w3.org/1999/xlink">
    <title>icon/24/line/log-out</title>
    <g id="icon/24/line/log-out" stroke="none" stroke-width="1" fill="none" fill-rule="evenodd">
        <path d="M16.1567227,6.68702083 L20.5895677,10.9705611 C21.1853008,11.5462291 21.2015669,12.4958372 20.6258989,13.0915703 L20.5895677,13.1279015 L16.1567227,17.4114418 L14.7669373,15.9732149 L17.8275078,13.0160208 L8.02050781,13.0167606 L8.02050781,11.0167606 L17.7595078,11.0160208 L14.7669373,8.12524777 L16.1567227,6.68702083 Z" id="Combined-Shape" fill="#D7CAFF" fill-rule="nonzero"></path>
        <path d="M10,3 L10,5 L8.33647185,5.00091121 C6.82268079,5.00753541 6.41620264,5.05280634 6.09201797,5.21798781 C5.71569206,5.40973409 5.40973409,5.71569206 5.21798527,6.09202296 C5.05280612,6.41620308 5.00753539,6.82268082 5.00091121,8.33647186 L5.00091114,15.6635358 C5.00753483,17.1773473 5.05280312,17.5837857 5.21799107,17.9080184 C5.40972219,18.2843212 5.71565879,18.5902423 6.09204501,18.782006 C6.44709125,18.9629234 6.90086058,19 8.8,19 L10,19 L10,21 L8.8,21 C6.49873942,21 5.95199625,20.9553266 5.1840671,20.5640206 C4.43138723,20.1805404 3.8194605,19.5686448 3.4359547,18.8159536 C3.06097276,18.0799349 3.0043242,17.5471593 3.00025449,15.4786568 L3,8.8 C3,6.49874838 3.04467023,5.95201013 3.43597219,5.18404203 C3.81946591,4.43138794 4.43138794,3.81946591 5.18403704,3.43597473 C5.92001125,3.06097458 6.45280277,3.00432431 8.52133872,3.0002545 L10,3 Z" id="Combined-Shape" fill="#D7CAFF" fill-rule="nonzero"></path>
    </g>
</svg>
